<?xml version="1.0" encoding="utf-8"?>
<!-- Generator: Adobe Illustrator 26.0.0, SVG Export Plug-In . SVG Version: 6.00 Build 0)  -->
<svg version="1.1" id="Слой_1" xmlns="http://www.w3.org/2000/svg" xmlns:xlink="http://www.w3.org/1999/xlink" x="0px" y="0px"
	 viewBox="0 0 67 50" style="enable-background:new 0 0 67 50;" xml:space="preserve">
<style type="text/css">
	.st0{fill:#7859CF;}
	.st1{fill:#2B2B2B;}
</style>
<path class="st0" d="M64.4,39.3L49.6,24.5c2.8-6.3,1.6-14-3.6-19.1c-6.7-6.7-17.6-6.7-24.3,0C15,12.1,15,23,21.7,29.7
	c5.3,5.3,13.1,6.4,19.4,3.5l14.7,14.8c2.4,2.4,6.2,2.4,8.6,0C66.8,45.5,66.8,41.7,64.4,39.3z M24.5,27c-5.2-5.2-5.2-13.7,0-18.9
	c5.2-5.2,13.6-5.2,18.8,0c5.2,5.2,5.2,13.7,0,18.9C38.1,32.2,29.7,32.2,24.5,27z M61.7,45.2c-0.9,0.9-2.2,0.9-3.1,0L44.5,31.1
	c1.2-0.9,2.2-2,3.1-3.1l14.1,14.1C62.5,42.9,62.5,44.3,61.7,45.2z"/>
<path class="st1" d="M1.9,23.6h8.3c1.1,0,1.9-0.9,1.9-1.9c0-1.1-0.9-1.9-1.9-1.9H1.9c-1.1,0-1.9,0.9-1.9,1.9
	C0,22.7,0.9,23.6,1.9,23.6z"/>
<path class="st1" d="M1.9,31.9h11.4c1.1,0,1.9-0.9,1.9-1.9c0-1.1-0.9-1.9-1.9-1.9H1.9C0.9,28,0,28.8,0,29.9C0,31,0.9,31.9,1.9,31.9z
	"/>
<path class="st1" d="M1.9,40.1h19.6c1.1,0,1.9-0.9,1.9-1.9c0-1.1-0.9-1.9-1.9-1.9H1.9c-1.1,0-1.9,0.9-1.9,1.9
	C0,39.3,0.9,40.1,1.9,40.1z"/>
<path class="st1" d="M44.3,44.5H1.9c-1.1,0-1.9,0.9-1.9,1.9s0.9,1.9,1.9,1.9h42.4c1.1,0,1.9-0.9,1.9-1.9S45.4,44.5,44.3,44.5z"/>
</svg>
