<?xml version="1.0" encoding="utf-8"?>
<!-- Generator: Adobe Illustrator 26.0.0, SVG Export Plug-In . SVG Version: 6.00 Build 0)  -->
<svg version="1.1" id="Слой_1" xmlns="http://www.w3.org/2000/svg" xmlns:xlink="http://www.w3.org/1999/xlink" x="0px" y="0px"
	 viewBox="0 0 60 50" style="enable-background:new 0 0 60 50;" xml:space="preserve">
<style type="text/css">
	.st0{fill:#7859CF;}
	.st1{fill:#2B2B2B;}
</style>
<path class="st0" d="M5.3,49.5h49.5c2.9,0,5.3-2.4,5.3-5.3V5.7c0-2.9-2.4-5.3-5.3-5.3H5.3C2.4,0.5,0,2.8,0,5.7v38.5
	C0,47.2,2.4,49.5,5.3,49.5z M3.5,5.7c0-1,0.8-1.8,1.8-1.8h49.5c1,0,1.8,0.8,1.8,1.8v38.5c0,1-0.8,1.8-1.8,1.8H5.3
	c-1,0-1.8-0.8-1.8-1.8V5.7z"/>
<path class="st1" d="M8.8,39H11c0.7,2,2.7,3.5,5,3.5s4.2-1.5,5-3.5h30.3c1,0,1.8-0.8,1.8-1.8s-0.8-1.8-1.8-1.8H20.9
	c-0.7-2-2.7-3.5-5-3.5s-4.2,1.5-5,3.5H8.8c-1,0-1.8,0.8-1.8,1.8S7.8,39,8.8,39z M15.9,35.5c1,0,1.8,0.8,1.8,1.8S16.9,39,15.9,39
	s-1.8-0.8-1.8-1.8S15,35.5,15.9,35.5z"/>
<path class="st1" d="M22,28.2c0.5,0.3,1.2,0.3,1.7,0.1l14.1-7c0.6-0.3,1-0.9,1-1.6c0-0.7-0.4-1.3-1-1.6l-14.1-7
	c-0.5-0.3-1.2-0.2-1.7,0.1c-0.5,0.3-0.8,0.9-0.8,1.5v14C21.2,27.4,21.5,27.9,22,28.2z M24.7,15.6l8.4,4.2l-8.4,4.2V15.6z"/>
</svg>
