<?xml version="1.0" encoding="utf-8"?>
<!-- Generator: Adobe Illustrator 26.0.0, SVG Export Plug-In . SVG Version: 6.00 Build 0)  -->
<svg version="1.1" id="Слой_1" xmlns="http://www.w3.org/2000/svg" xmlns:xlink="http://www.w3.org/1999/xlink" x="0px" y="0px"
	 viewBox="0 0 54 50" style="enable-background:new 0 0 54 50;" xml:space="preserve">
<style type="text/css">
	.st0{clip-path:url(#SVGID_00000111154575106203433770000000823796652617214113_);}
	.st1{fill:#2B2B2B;}
	.st2{fill:#7859CF;}
</style>
<g>
	<defs>
		<rect id="SVGID_1_" width="53.3" height="50"/>
	</defs>
	<clipPath id="SVGID_00000124128441243297303260000004084377151500673949_">
		<use xlink:href="#SVGID_1_"  style="overflow:visible;"/>
	</clipPath>
	<g style="clip-path:url(#SVGID_00000124128441243297303260000004084377151500673949_);">
		<path class="st1" d="M4.4,1.9v2.4C2.2,5,0.6,7.2,0.6,9.6c0,2.5,1.6,4.6,3.8,5.4v32.8c0,1.1,0.9,1.9,1.9,1.9c1.1,0,1.9-0.9,1.9-1.9
			l0-32.8c2.2-0.8,3.8-2.9,3.8-5.4c0-2.5-1.6-4.6-3.8-5.4V1.9C8.2,0.9,7.4,0,6.3,0C5.3,0,4.4,0.9,4.4,1.9z M8.2,9.6
			c0,1-0.9,1.9-1.9,1.9s-1.9-0.9-1.9-1.9s0.9-1.9,1.9-1.9S8.2,8.6,8.2,9.6z"/>
		<path class="st2" d="M24.8,47.8v-2.4c-2.2-0.8-3.8-2.9-3.8-5.4c0-2.5,1.6-4.6,3.8-5.4V1.9c0-1.1,0.9-1.9,1.9-1.9
			c1.1,0,1.9,0.9,1.9,1.9v32.8c2.2,0.8,3.8,2.9,3.8,5.4c0,2.5-1.6,4.6-3.8,5.4v2.4c0,1.1-0.9,1.9-1.9,1.9
			C25.6,49.7,24.8,48.9,24.8,47.8z M28.6,40.1c0-1-0.9-1.9-1.9-1.9c-1,0-1.9,0.9-1.9,1.9c0,1,0.9,1.9,1.9,1.9
			C27.7,42,28.6,41.1,28.6,40.1z"/>
		<path class="st1" d="M45.2,1.9v2.4C43,5,41.4,7.2,41.4,9.6c0,2.5,1.6,4.6,3.8,5.4v32.8c0,1.1,0.9,1.9,1.9,1.9
			c1.1,0,1.9-0.9,1.9-1.9V15c2.2-0.8,3.8-2.9,3.8-5.4c0-2.5-1.6-4.6-3.8-5.4V1.9C49,0.9,48.1,0,47.1,0C46,0,45.2,0.9,45.2,1.9z
			 M49,9.6c0,1-0.9,1.9-1.9,1.9c-1,0-1.9-0.9-1.9-1.9s0.9-1.9,1.9-1.9C48.1,7.7,49,8.6,49,9.6z"/>
	</g>
</g>
</svg>
