<svg width="14" height="10" viewBox="0 0 14 10" fill="none" xmlns="http://www.w3.org/2000/svg">
<path d="M13.2852 1.71944C13.134 1.15716 12.6906 0.713921 12.1284 0.562515C11.1014 0.281494 6.993 0.281494 6.993 0.281494C6.993 0.281494 2.88479 0.281494 1.85772 0.551861C1.30633 0.703106 0.852196 1.15724 0.700951 1.71944C0.430664 2.74644 0.430664 4.87629 0.430664 4.87629C0.430664 4.87629 0.430664 7.01687 0.700951 8.03313C0.852356 8.59533 1.29552 9.03857 1.8578 9.18997C2.89561 9.47108 6.99316 9.47108 6.99316 9.47108C6.99316 9.47108 11.1014 9.47108 12.1284 9.20071C12.6907 9.04938 13.134 8.60614 13.2854 8.04394C13.5556 7.01687 13.5556 4.8871 13.5556 4.8871C13.5556 4.8871 13.5664 2.74644 13.2852 1.71944ZM5.68499 6.84391V2.90866L9.1013 4.87629L5.68499 6.84391Z" fill="white"/>
</svg>
