<svg width="14" height="8" viewBox="0 0 14 8" fill="none" xmlns="http://www.w3.org/2000/svg">
<path d="M13.8752 7.13084C13.8376 7.06783 13.6048 6.56205 12.4847 5.52247C11.3122 4.43389 11.4697 4.61065 12.882 2.72838C13.7422 1.58205 14.0861 0.881996 13.9785 0.582724C13.8761 0.297452 13.2434 0.372708 13.2434 0.372708L11.1398 0.384959C11.1398 0.384959 10.984 0.363957 10.8676 0.433088C10.7547 0.501343 10.6821 0.658854 10.6821 0.658854C10.6821 0.658854 10.3487 1.54617 9.90418 2.30048C8.96698 3.89222 8.59158 3.97623 8.43845 3.87735C8.08229 3.6472 8.17155 2.95153 8.17155 2.45799C8.17155 0.915249 8.40519 0.272075 7.71564 0.105813C7.48637 0.0506839 7.31836 0.0139312 6.73294 0.00780571C5.98214 -6.98841e-05 5.34597 0.0104309 4.98631 0.186319C4.74655 0.303578 4.56191 0.565223 4.67479 0.580099C4.81393 0.598475 5.12895 0.66498 5.29609 0.892497C5.51223 1.18564 5.50435 1.84544 5.50435 1.84544C5.50435 1.84544 5.62861 3.6612 5.21471 3.88697C4.93031 4.04186 4.54091 3.72596 3.70522 2.28123C3.27731 1.5418 2.95354 0.72361 2.95354 0.72361C2.95354 0.72361 2.89141 0.571348 2.78028 0.489967C2.64552 0.391085 2.4565 0.359582 2.4565 0.359582L0.456104 0.371833C0.456104 0.371833 0.155957 0.380584 0.0456987 0.510969C-0.0523085 0.627352 0.0378231 0.86712 0.0378231 0.86712C0.0378231 0.86712 1.60419 4.53102 3.37707 6.37828C5.00382 8.07153 6.8502 7.9604 6.8502 7.9604H7.68676C7.68676 7.9604 7.93966 7.9324 8.06829 7.79326C8.1873 7.6655 8.18293 7.42574 8.18293 7.42574C8.18293 7.42574 8.1663 6.30303 8.68784 6.13764C9.2015 5.97488 9.8613 7.22272 10.5605 7.70313C11.089 8.06628 11.4907 7.98665 11.4907 7.98665L13.3607 7.9604C13.3607 7.9604 14.339 7.90002 13.8752 7.13084Z" fill="white"/>
</svg>
